<?xml version="1.0"?>
<svg version="1.1" xmlns="http://www.w3.org/2000/svg" width="144px" height="36px" style=""><path fill="#000000" d="M42.78,32.672c0,0.28-0.14,0.448-0.504,0.448l-2.492,0c-0.588,0-0.784-0.224-0.952-0.672l-1.456-4.116l-7.084,0l-1.456,4.2c-0.112,0.364-0.308,0.588-0.756,0.588l-2.492,0c-0.28,0-0.392-0.14-0.392-0.364c0-0.084,0-0.196,0.056-0.308l6.832-18.144c0.14-0.336,0.336-0.56,0.756-0.56l2.24,0c0.42,0,0.672,0.196,0.784,0.504l6.86,18.06c0.056,0.14,0.056,0.252,0.056,0.364z M36.424,25.616l-1.988-5.908c-0.252-0.784-0.42-1.372-0.56-1.82l-0.056,0c-0.14,0.476-0.308,1.064-0.588,1.848l-1.988,5.88l5.18,0z M56.654,32.168c0,0.224-0.14,0.336-0.392,0.448c-1.344,0.616-2.576,0.84-4.06,0.84c-4.312,0-6.692-2.688-6.692-7c0-4.34,2.604-7.28,6.944-7.28c1.26,0,2.576,0.252,3.752,0.784c0.224,0.112,0.336,0.168,0.336,0.392c0,0.084-0.028,0.252-0.056,0.336l-0.364,1.484c-0.056,0.252-0.168,0.392-0.336,0.392c-0.084,0-0.196-0.056-0.308-0.112c-0.812-0.336-1.708-0.616-2.688-0.616c-2.408,0-3.78,1.708-3.78,4.452c0,2.688,1.232,4.536,3.64,4.536c1.204,0,1.96-0.224,2.94-0.616c0.084-0.028,0.196-0.084,0.28-0.084c0.168,0,0.28,0.14,0.336,0.336l0.364,1.232c0.056,0.196,0.084,0.364,0.084,0.476z M73.804,32.588c0,0.336-0.224,0.532-0.56,0.532l-1.344,0c-1.456,0-2.1-0.7-2.296-1.652l-0.056,0c-0.7,1.036-2.52,1.988-4.06,1.988c-3.948,0-5.74-3.248-5.74-6.888c0-4.844,2.912-7.392,6.048-7.392c1.484,0,2.884,0.672,3.584,1.624l0.056-0.756c0.028-0.308,0.252-0.504,0.588-0.504l1.96,0c0.364,0,0.588,0.196,0.588,0.616l0,9.716c0,0.392,0.056,0.672,0.168,0.812c0.084,0.084,0.196,0.112,0.336,0.112l0.224,0c0.336,0,0.504,0.112,0.504,0.476l0,1.316z M69.184,28.78l0-5.404c-0.56-0.812-1.708-1.428-2.772-1.428c-1.708,0-3.164,1.456-3.164,4.396c0,2.352,0.896,4.34,2.968,4.34c1.372,0,2.548-1.036,2.968-1.904z M86.95,29.116c0,2.94-2.548,4.34-5.404,4.34c-1.456,0-3.052-0.42-4.312-0.98c-0.252-0.112-0.336-0.28-0.336-0.448c0-0.084,0.028-0.168,0.056-0.252l0.448-1.428c0.084-0.28,0.224-0.392,0.392-0.392c0.084,0,0.168,0,0.308,0.056c1.232,0.504,2.548,0.868,3.528,0.868c1.232,0,2.072-0.56,2.072-1.484c0-0.784-0.532-1.204-1.68-1.652l-2.212-0.84c-1.596-0.588-2.884-1.82-2.884-3.724c0-2.744,2.576-4.004,5.068-4.004c1.344,0,2.66,0.224,4.06,0.84c0.224,0.112,0.336,0.224,0.336,0.392c0,0.084-0.028,0.168-0.056,0.28l-0.476,1.512c-0.056,0.196-0.196,0.308-0.392,0.308c-0.084,0-0.196-0.028-0.28-0.056c-0.924-0.364-2.128-0.672-3.024-0.672c-1.176,0-1.764,0.644-1.764,1.288c0,0.616,0.308,1.008,1.372,1.428l2.52,1.036c1.484,0.616,2.66,1.764,2.66,3.584z M103.148,32.336c0,0.588-0.168,0.784-0.728,0.784l-1.792,0c-0.364,0-0.644-0.196-0.672-0.56l-0.028-0.7c-1.288,1.036-2.828,1.596-4.452,1.596c-3.136,0-4.424-1.988-4.424-5.012l0-8.26c0-0.476,0.28-0.644,0.728-0.644l1.96,0c0.448,0,0.7,0.14,0.7,0.644l0,7.672c0,1.54,0.392,2.604,2.072,2.604c1.064,0,2.408-0.588,3.248-1.344l0-8.932c0-0.476,0.252-0.644,0.7-0.644l1.988,0c0.448,0,0.7,0.14,0.7,0.644l0,12.152z M118.534,32.168c0,0.224-0.14,0.336-0.392,0.448c-1.344,0.616-2.576,0.84-4.06,0.84c-4.312,0-6.692-2.688-6.692-7c0-4.34,2.604-7.28,6.944-7.28c1.26,0,2.576,0.252,3.752,0.784c0.224,0.112,0.336,0.168,0.336,0.392c0,0.084-0.028,0.252-0.056,0.336l-0.364,1.484c-0.056,0.252-0.168,0.392-0.336,0.392c-0.084,0-0.196-0.056-0.308-0.112c-0.812-0.336-1.708-0.616-2.688-0.616c-2.408,0-3.78,1.708-3.78,4.452c0,2.688,1.232,4.536,3.64,4.536c1.204,0,1.96-0.224,2.94-0.616c0.084-0.028,0.196-0.084,0.28-0.084c0.168,0,0.28,0.14,0.336,0.336l0.364,1.232c0.056,0.196,0.084,0.364,0.084,0.476z M135.684,32.588c0,0.336-0.224,0.532-0.56,0.532l-1.344,0c-1.456,0-2.1-0.7-2.296-1.652l-0.056,0c-0.7,1.036-2.52,1.988-4.06,1.988c-3.948,0-5.74-3.248-5.74-6.888c0-4.844,2.912-7.392,6.048-7.392c1.484,0,2.884,0.672,3.584,1.624l0.056-0.756c0.028-0.308,0.252-0.504,0.588-0.504l1.96,0c0.364,0,0.588,0.196,0.588,0.616l0,9.716c0,0.392,0.056,0.672,0.168,0.812c0.084,0.084,0.196,0.112,0.336,0.112l0.224,0c0.336,0,0.504,0.112,0.504,0.476l0,1.316z M131.064,28.78l0-5.404c-0.56-0.812-1.708-1.428-2.772-1.428c-1.708,0-3.164,1.456-3.164,4.396c0,2.352,0.896,4.34,2.968,4.34c1.372,0,2.548-1.036,2.968-1.904z"/><path fill="#e68f17" d="M20,24.6c0,0.2-0.12,0.36-0.4,0.48l-2.52,1.32c-0.2,0.12-0.36,0.16-0.52,0.16c-0.24,0-0.4-0.16-0.6-0.44l-5.36-8.24l-5.36,8.04c-0.24,0.36-0.48,0.56-0.72,0.56c-0.16,0-0.32-0.08-0.48-0.2l-2.16-1.52c-0.32-0.24-0.48-0.4-0.48-0.64c0-0.2,0.08-0.44,0.28-0.72l7.52-10.8c0.32-0.44,0.52-0.68,1.04-0.68l1.04,0c0.56,0,0.84,0.36,1.08,0.72l7.4,11.4c0.16,0.24,0.24,0.4,0.24,0.56z"/></svg>
